<svg width="41" height="41" viewBox="0 0 41 41" fill="none" xmlns="http://www.w3.org/2000/svg">
<g filter="url(#filter0_d_671_4701)">
<g clip-path="url(#clip0_671_4701)">
<rect x="2" y="2" width="33" height="33" rx="16.5" fill="#00BCB4"/>
<g filter="url(#filter1_d_671_4701)">
<path d="M18.5048 19.4596C19.0782 19.4596 19.6384 19.631 20.1137 19.9519C20.5889 20.2727 20.9573 20.7283 21.1716 21.2601C21.3859 21.792 21.4363 22.3757 21.3163 22.9364C21.1962 23.4971 20.9113 24.009 20.4981 24.4066L18.6677 26.168H21.3798V28.0846H15.6298L15.6288 26.4325L19.1689 23.0256C19.2831 22.9158 19.3684 22.7794 19.4169 22.6286C19.4655 22.4778 19.476 22.3173 19.4473 22.1615C19.4187 22.0056 19.3519 21.8593 19.2528 21.7357C19.1538 21.612 19.0256 21.5148 18.8798 21.4528C18.734 21.3908 18.5751 21.3659 18.4174 21.3804C18.2596 21.3948 18.1078 21.4482 17.9757 21.5356C17.8436 21.6231 17.7353 21.7419 17.6604 21.8816C17.5854 22.0212 17.5463 22.1772 17.5464 22.3356H15.6298C15.6297 21.958 15.7039 21.584 15.8484 21.2351C15.9928 20.8862 16.2045 20.5691 16.4715 20.302C16.7385 20.035 17.0555 19.8231 17.4043 19.6786C17.7532 19.534 18.1272 19.4596 18.5048 19.4596ZM24.2548 19.4596V23.293H26.1714V19.4596H28.0881V28.0846H26.1714V25.2096H22.3381V19.4596H24.2548ZM10.8381 18.5013C10.8369 19.6509 11.0948 20.786 11.5925 21.8223C12.0902 22.8586 12.8151 23.7694 13.7131 24.4871V26.8024C12.2558 25.9614 11.0456 24.7515 10.2044 23.2942C9.36327 21.837 8.92077 20.1839 8.92145 18.5013H10.8381ZM18.5048 8.91797C23.4737 8.91797 27.5601 12.7005 28.0402 17.543H26.112C25.9174 15.9976 25.2568 14.5482 24.218 13.3876C23.1793 12.227 21.8117 11.4102 20.2973 11.046C18.783 10.6819 17.1936 10.7875 15.7407 11.3489C14.2879 11.9104 13.0404 12.9009 12.1644 14.1888H14.6714V16.1055H8.92145V10.3555H10.8381V12.7513C11.73 11.5603 12.8874 10.5936 14.2182 9.92819C15.5491 9.26275 17.0168 8.91685 18.5048 8.91797Z" fill="white"/>
</g>
</g>
</g>
<defs>
<filter id="filter0_d_671_4701" x="0" y="0" width="41" height="41" filterUnits="userSpaceOnUse" color-interpolation-filters="sRGB">
<feFlood flood-opacity="0" result="BackgroundImageFix"/>
<feColorMatrix in="SourceAlpha" type="matrix" values="0 0 0 0 0 0 0 0 0 0 0 0 0 0 0 0 0 0 127 0" result="hardAlpha"/>
<feOffset dx="2" dy="2"/>
<feGaussianBlur stdDeviation="2"/>
<feComposite in2="hardAlpha" operator="out"/>
<feColorMatrix type="matrix" values="0 0 0 0 0 0 0 0 0 0 0 0 0 0 0 0 0 0 0.25 0"/>
<feBlend mode="normal" in2="BackgroundImageFix" result="effect1_dropShadow_671_4701"/>
<feBlend mode="normal" in="SourceGraphic" in2="effect1_dropShadow_671_4701" result="shape"/>
</filter>
<filter id="filter1_d_671_4701" x="4.92145" y="8.91797" width="27.1667" height="27.168" filterUnits="userSpaceOnUse" color-interpolation-filters="sRGB">
<feFlood flood-opacity="0" result="BackgroundImageFix"/>
<feColorMatrix in="SourceAlpha" type="matrix" values="0 0 0 0 0 0 0 0 0 0 0 0 0 0 0 0 0 0 127 0" result="hardAlpha"/>
<feOffset dy="4"/>
<feGaussianBlur stdDeviation="2"/>
<feComposite in2="hardAlpha" operator="out"/>
<feColorMatrix type="matrix" values="0 0 0 0 0 0 0 0 0 0 0 0 0 0 0 0 0 0 0.25 0"/>
<feBlend mode="normal" in2="BackgroundImageFix" result="effect1_dropShadow_671_4701"/>
<feBlend mode="normal" in="SourceGraphic" in2="effect1_dropShadow_671_4701" result="shape"/>
</filter>
<clipPath id="clip0_671_4701">
<rect x="2" y="2" width="33" height="33" rx="16.5" fill="white"/>
</clipPath>
</defs>
</svg>