<svg width="41" height="41" viewBox="0 0 41 41" fill="none" xmlns="http://www.w3.org/2000/svg">
<g filter="url(#filter0_d_671_7580)">
<g clip-path="url(#clip0_671_7580)">
<rect x="2" y="2" width="33" height="33" rx="16.5" fill="#C3D311"/>
<g filter="url(#filter1_d_671_7580)">
<path fill-rule="evenodd" clip-rule="evenodd" d="M9.91792 18.1884C9.91792 22.8558 13.302 26.036 17.1031 26.6938C17.2065 26.7117 17.3054 26.7498 17.394 26.8059C17.4827 26.862 17.5595 26.9351 17.6199 27.0209C17.6803 27.1067 17.7233 27.2035 17.7463 27.3059C17.7693 27.4083 17.7719 27.5142 17.754 27.6176C17.7361 27.721 17.698 27.8199 17.6419 27.9085C17.5857 27.9972 17.5127 28.0739 17.4269 28.1344C17.3411 28.1948 17.2443 28.2378 17.1419 28.2608C17.0395 28.2838 16.9336 28.2864 16.8302 28.2685C12.3667 27.4957 8.32019 23.7329 8.32019 18.1884C8.32019 15.8316 9.39199 13.9794 10.6432 12.5718C11.5402 11.5628 12.566 10.7425 13.3909 10.1154H10.8824C10.6791 10.1154 10.4841 10.0346 10.3403 9.89081C10.1965 9.74704 10.1157 9.55203 10.1157 9.3487C10.1157 9.14537 10.1965 8.95036 10.3403 8.80658C10.4841 8.6628 10.6791 8.58203 10.8824 8.58203H15.4824C15.6857 8.58203 15.8807 8.6628 16.0245 8.80658C16.1683 8.95036 16.2491 9.14537 16.2491 9.3487V13.9487C16.2491 14.152 16.1683 14.347 16.0245 14.4908C15.8807 14.6346 15.6857 14.7154 15.4824 14.7154C15.2791 14.7154 15.0841 14.6346 14.9403 14.4908C14.7965 14.347 14.7157 14.152 14.7157 13.9487V11.1182L14.7142 11.1212C13.8371 11.7806 12.7669 12.5886 11.8392 13.6328C10.7429 14.8656 9.91792 16.3576 9.91792 18.1884ZM26.9502 18.8109C26.9502 14.1925 23.6382 11.0323 19.8861 10.327C19.7815 10.3092 19.6816 10.2708 19.592 10.214C19.5024 10.1572 19.425 10.0832 19.3644 9.99614C19.3037 9.90912 19.261 9.81089 19.2387 9.70719C19.2164 9.60349 19.215 9.49639 19.2346 9.39213C19.2541 9.28788 19.2942 9.18856 19.3526 9.09998C19.4109 9.01139 19.4863 8.93531 19.5744 8.87617C19.6624 8.81703 19.7614 8.77602 19.8654 8.75554C19.9695 8.73505 20.0766 8.73549 20.1805 8.75683C24.5873 9.58483 28.5479 13.3262 28.5479 18.8109C28.5479 21.1676 27.4761 23.0184 26.2249 24.4275C25.3279 25.4364 24.3021 26.2568 23.4772 26.8839H25.9857C26.1891 26.8839 26.3841 26.9647 26.5278 27.1084C26.6716 27.2522 26.7524 27.4472 26.7524 27.6506C26.7524 27.8539 26.6716 28.0489 26.5278 28.1927C26.3841 28.3365 26.1891 28.4172 25.9857 28.4172H21.3857C21.1824 28.4172 20.9874 28.3365 20.8436 28.1927C20.6998 28.0489 20.6191 27.8539 20.6191 27.6506V23.0506C20.6191 22.8472 20.6998 22.6522 20.8436 22.5084C20.9874 22.3647 21.1824 22.2839 21.3857 22.2839C21.5891 22.2839 21.7841 22.3647 21.9278 22.5084C22.0716 22.6522 22.1524 22.8472 22.1524 23.0506V25.8796H22.1555C23.031 25.2172 24.1028 24.4106 25.0289 23.3649C26.1253 22.1336 26.9502 20.6432 26.9502 18.8109Z" fill="white"/>
</g>
</g>
</g>
<defs>
<filter id="filter0_d_671_7580" x="0" y="0" width="41" height="41" filterUnits="userSpaceOnUse" color-interpolation-filters="sRGB">
<feFlood flood-opacity="0" result="BackgroundImageFix"/>
<feColorMatrix in="SourceAlpha" type="matrix" values="0 0 0 0 0 0 0 0 0 0 0 0 0 0 0 0 0 0 127 0" result="hardAlpha"/>
<feOffset dx="2" dy="2"/>
<feGaussianBlur stdDeviation="2"/>
<feComposite in2="hardAlpha" operator="out"/>
<feColorMatrix type="matrix" values="0 0 0 0 0 0 0 0 0 0 0 0 0 0 0 0 0 0 0.25 0"/>
<feBlend mode="normal" in2="BackgroundImageFix" result="effect1_dropShadow_671_7580"/>
<feBlend mode="normal" in="SourceGraphic" in2="effect1_dropShadow_671_7580" result="shape"/>
</filter>
<filter id="filter1_d_671_7580" x="4.32019" y="8.58203" width="28.2277" height="27.8359" filterUnits="userSpaceOnUse" color-interpolation-filters="sRGB">
<feFlood flood-opacity="0" result="BackgroundImageFix"/>
<feColorMatrix in="SourceAlpha" type="matrix" values="0 0 0 0 0 0 0 0 0 0 0 0 0 0 0 0 0 0 127 0" result="hardAlpha"/>
<feOffset dy="4"/>
<feGaussianBlur stdDeviation="2"/>
<feComposite in2="hardAlpha" operator="out"/>
<feColorMatrix type="matrix" values="0 0 0 0 0 0 0 0 0 0 0 0 0 0 0 0 0 0 0.25 0"/>
<feBlend mode="normal" in2="BackgroundImageFix" result="effect1_dropShadow_671_7580"/>
<feBlend mode="normal" in="SourceGraphic" in2="effect1_dropShadow_671_7580" result="shape"/>
</filter>
<clipPath id="clip0_671_7580">
<rect x="2" y="2" width="33" height="33" rx="16.5" fill="white"/>
</clipPath>
</defs>
</svg>
