<svg width="41" height="41" viewBox="0 0 41 41" fill="none" xmlns="http://www.w3.org/2000/svg">
<g filter="url(#filter0_d_796_5884)">
<g clip-path="url(#clip0_796_5884)">
<rect x="2" y="2" width="33" height="33" rx="16.5" fill="#FF6B1E"/>
<g filter="url(#filter1_d_796_5884)">
<path d="M11.7917 28.0846C11.2646 28.0846 10.8132 27.8968 10.4375 27.5211C10.0619 27.1455 9.87436 26.6944 9.875 26.168V12.7513C9.875 12.2242 10.0628 11.7728 10.4385 11.3972C10.8142 11.0215 11.2652 10.834 11.7917 10.8346H12.75V9.87631C12.75 9.60478 12.842 9.37701 13.026 9.19301C13.21 9.00901 13.4374 8.91733 13.7083 8.91797C13.9799 8.91797 14.2076 9.00997 14.3916 9.19397C14.5756 9.37797 14.6673 9.60542 14.6667 9.87631V10.8346H22.3333V9.87631C22.3333 9.60478 22.4253 9.37701 22.6093 9.19301C22.7933 9.00901 23.0208 8.91733 23.2917 8.91797C23.5632 8.91797 23.791 9.00997 23.975 9.19397C24.159 9.37797 24.2506 9.60542 24.25 9.87631V10.8346H25.2083C25.7354 10.8346 26.1868 11.0225 26.5625 11.3981C26.9381 11.7738 27.1256 12.2249 27.125 12.7513V26.168C27.125 26.6951 26.9372 27.1464 26.5615 27.5221C26.1858 27.8978 25.7348 28.0853 25.2083 28.0846H11.7917ZM11.7917 26.168H25.2083V16.5846H11.7917V26.168ZM18.5 20.418C18.2285 20.418 18.0007 20.326 17.8167 20.142C17.6327 19.958 17.541 19.7305 17.5417 19.4596C17.5417 19.1881 17.6337 18.9603 17.8177 18.7763C18.0017 18.5923 18.2291 18.5007 18.5 18.5013C18.7715 18.5013 18.9993 18.5933 19.1833 18.7773C19.3673 18.9613 19.459 19.1887 19.4583 19.4596C19.4583 19.7312 19.3663 19.9589 19.1823 20.1429C18.9983 20.3269 18.7709 20.4186 18.5 20.418ZM14.6667 20.418C14.3951 20.418 14.1674 20.326 13.9834 20.142C13.7994 19.958 13.7077 19.7305 13.7083 19.4596C13.7083 19.1881 13.8003 18.9603 13.9843 18.7763C14.1683 18.5923 14.3958 18.5007 14.6667 18.5013C14.9382 18.5013 15.166 18.5933 15.35 18.7773C15.534 18.9613 15.6256 19.1887 15.625 19.4596C15.625 19.7312 15.533 19.9589 15.349 20.1429C15.165 20.3269 14.9376 20.4186 14.6667 20.418ZM22.3333 20.418C22.0618 20.418 21.834 20.326 21.65 20.142C21.466 19.958 21.3744 19.7305 21.375 19.4596C21.375 19.1881 21.467 18.9603 21.651 18.7763C21.835 18.5923 22.0624 18.5007 22.3333 18.5013C22.6049 18.5013 22.8326 18.5933 23.0166 18.7773C23.2006 18.9613 23.2923 19.1887 23.2917 19.4596C23.2917 19.7312 23.1997 19.9589 23.0157 20.1429C22.8317 20.3269 22.6042 20.4186 22.3333 20.418ZM18.5 24.2513C18.2285 24.2513 18.0007 24.1593 17.8167 23.9753C17.6327 23.7913 17.541 23.5639 17.5417 23.293C17.5417 23.0214 17.6337 22.7937 17.8177 22.6097C18.0017 22.4257 18.2291 22.334 18.5 22.3346C18.7715 22.3346 18.9993 22.4266 19.1833 22.6106C19.3673 22.7946 19.459 23.0221 19.4583 23.293C19.4583 23.5645 19.3663 23.7923 19.1823 23.9763C18.9983 24.1603 18.7709 24.2519 18.5 24.2513ZM14.6667 24.2513C14.3951 24.2513 14.1674 24.1593 13.9834 23.9753C13.7994 23.7913 13.7077 23.5639 13.7083 23.293C13.7083 23.0214 13.8003 22.7937 13.9843 22.6097C14.1683 22.4257 14.3958 22.334 14.6667 22.3346C14.9382 22.3346 15.166 22.4266 15.35 22.6106C15.534 22.7946 15.6256 23.0221 15.625 23.293C15.625 23.5645 15.533 23.7923 15.349 23.9763C15.165 24.1603 14.9376 24.2519 14.6667 24.2513ZM22.3333 24.2513C22.0618 24.2513 21.834 24.1593 21.65 23.9753C21.466 23.7913 21.3744 23.5639 21.375 23.293C21.375 23.0214 21.467 22.7937 21.651 22.6097C21.835 22.4257 22.0624 22.334 22.3333 22.3346C22.6049 22.3346 22.8326 22.4266 23.0166 22.6106C23.2006 22.7946 23.2923 23.0221 23.2917 23.293C23.2917 23.5645 23.1997 23.7923 23.0157 23.9763C22.8317 24.1603 22.6042 24.2519 22.3333 24.2513Z" fill="white"/>
</g>
</g>
</g>
<defs>
<filter id="filter0_d_796_5884" x="0" y="0" width="41" height="41" filterUnits="userSpaceOnUse" color-interpolation-filters="sRGB">
<feFlood flood-opacity="0" result="BackgroundImageFix"/>
<feColorMatrix in="SourceAlpha" type="matrix" values="0 0 0 0 0 0 0 0 0 0 0 0 0 0 0 0 0 0 127 0" result="hardAlpha"/>
<feOffset dx="2" dy="2"/>
<feGaussianBlur stdDeviation="2"/>
<feComposite in2="hardAlpha" operator="out"/>
<feColorMatrix type="matrix" values="0 0 0 0 0 0 0 0 0 0 0 0 0 0 0 0 0 0 0.25 0"/>
<feBlend mode="normal" in2="BackgroundImageFix" result="effect1_dropShadow_796_5884"/>
<feBlend mode="normal" in="SourceGraphic" in2="effect1_dropShadow_796_5884" result="shape"/>
</filter>
<filter id="filter1_d_796_5884" x="5.875" y="8.91797" width="25.25" height="27.168" filterUnits="userSpaceOnUse" color-interpolation-filters="sRGB">
<feFlood flood-opacity="0" result="BackgroundImageFix"/>
<feColorMatrix in="SourceAlpha" type="matrix" values="0 0 0 0 0 0 0 0 0 0 0 0 0 0 0 0 0 0 127 0" result="hardAlpha"/>
<feOffset dy="4"/>
<feGaussianBlur stdDeviation="2"/>
<feComposite in2="hardAlpha" operator="out"/>
<feColorMatrix type="matrix" values="0 0 0 0 0 0 0 0 0 0 0 0 0 0 0 0 0 0 0.25 0"/>
<feBlend mode="normal" in2="BackgroundImageFix" result="effect1_dropShadow_796_5884"/>
<feBlend mode="normal" in="SourceGraphic" in2="effect1_dropShadow_796_5884" result="shape"/>
</filter>
<clipPath id="clip0_796_5884">
<rect x="2" y="2" width="33" height="33" rx="16.5" fill="white"/>
</clipPath>
</defs>
</svg>
