<svg width="41" height="41" viewBox="0 0 41 41" fill="none" xmlns="http://www.w3.org/2000/svg">
<g filter="url(#filter0_d_671_7638)">
<g clip-path="url(#clip0_671_7638)">
<rect x="2" y="2" width="33" height="33" rx="16.5" fill="#FF6B1E"/>
<g filter="url(#filter1_d_671_7638)">
<path d="M26.1667 9.875H10.8333C9.77916 9.875 8.91666 10.7375 8.91666 11.7917V22.3333C8.91666 23.3875 9.77916 24.25 10.8333 24.25H13.7083L12.75 25.2083V27.125H24.25V25.2083L23.2917 24.25H26.1667C27.2208 24.25 28.0833 23.3875 28.0833 22.3333V11.7917C28.0833 10.7375 27.2208 9.875 26.1667 9.875ZM26.1667 22.3333H10.8333V11.7917H26.1667V22.3333Z" fill="white"/>
</g>
</g>
</g>
<defs>
<filter id="filter0_d_671_7638" x="0" y="0" width="41" height="41" filterUnits="userSpaceOnUse" color-interpolation-filters="sRGB">
<feFlood flood-opacity="0" result="BackgroundImageFix"/>
<feColorMatrix in="SourceAlpha" type="matrix" values="0 0 0 0 0 0 0 0 0 0 0 0 0 0 0 0 0 0 127 0" result="hardAlpha"/>
<feOffset dx="2" dy="2"/>
<feGaussianBlur stdDeviation="2"/>
<feComposite in2="hardAlpha" operator="out"/>
<feColorMatrix type="matrix" values="0 0 0 0 0 0 0 0 0 0 0 0 0 0 0 0 0 0 0.25 0"/>
<feBlend mode="normal" in2="BackgroundImageFix" result="effect1_dropShadow_671_7638"/>
<feBlend mode="normal" in="SourceGraphic" in2="effect1_dropShadow_671_7638" result="shape"/>
</filter>
<filter id="filter1_d_671_7638" x="4.91666" y="9.875" width="27.1667" height="25.25" filterUnits="userSpaceOnUse" color-interpolation-filters="sRGB">
<feFlood flood-opacity="0" result="BackgroundImageFix"/>
<feColorMatrix in="SourceAlpha" type="matrix" values="0 0 0 0 0 0 0 0 0 0 0 0 0 0 0 0 0 0 127 0" result="hardAlpha"/>
<feOffset dy="4"/>
<feGaussianBlur stdDeviation="2"/>
<feComposite in2="hardAlpha" operator="out"/>
<feColorMatrix type="matrix" values="0 0 0 0 0 0 0 0 0 0 0 0 0 0 0 0 0 0 0.25 0"/>
<feBlend mode="normal" in2="BackgroundImageFix" result="effect1_dropShadow_671_7638"/>
<feBlend mode="normal" in="SourceGraphic" in2="effect1_dropShadow_671_7638" result="shape"/>
</filter>
<clipPath id="clip0_671_7638">
<rect x="2" y="2" width="33" height="33" rx="16.5" fill="white"/>
</clipPath>
</defs>
</svg>
