<svg width="41" height="41" viewBox="0 0 41 41" fill="none" xmlns="http://www.w3.org/2000/svg">
<g filter="url(#filter0_d_671_7594)">
<g clip-path="url(#clip0_671_7594)">
<rect x="2" y="2" width="33" height="33" rx="16.5" fill="#FA5A7D"/>
<g filter="url(#filter1_d_671_7594)">
<mask id="mask0_671_7594" style="mask-type:luminance" maskUnits="userSpaceOnUse" x="6" y="6" width="25" height="24">
<path d="M8.91669 27.1243L15.625 11.791L20.4167 23.291L22.3334 17.541L28.0834 27.1243H8.91669ZM24.7292 13.7077C25.3646 13.7077 25.974 13.4553 26.4233 13.006C26.8726 12.5567 27.125 11.9473 27.125 11.3118C27.125 10.6764 26.8726 10.067 26.4233 9.61774C25.974 9.16843 25.3646 8.91602 24.7292 8.91602C24.0938 8.91602 23.4844 9.16843 23.0351 9.61774C22.5858 10.067 22.3334 10.6764 22.3334 11.3118C22.3334 11.9473 22.5858 12.5567 23.0351 13.006C23.4844 13.4553 24.0938 13.7077 24.7292 13.7077Z" fill="white" stroke="white" stroke-width="4" stroke-linejoin="round"/>
</mask>
<g mask="url(#mask0_671_7594)">
<path d="M7 7H30V30H7V7Z" fill="white"/>
</g>
</g>
</g>
</g>
<defs>
<filter id="filter0_d_671_7594" x="0" y="0" width="41" height="41" filterUnits="userSpaceOnUse" color-interpolation-filters="sRGB">
<feFlood flood-opacity="0" result="BackgroundImageFix"/>
<feColorMatrix in="SourceAlpha" type="matrix" values="0 0 0 0 0 0 0 0 0 0 0 0 0 0 0 0 0 0 127 0" result="hardAlpha"/>
<feOffset dx="2" dy="2"/>
<feGaussianBlur stdDeviation="2"/>
<feComposite in2="hardAlpha" operator="out"/>
<feColorMatrix type="matrix" values="0 0 0 0 0 0 0 0 0 0 0 0 0 0 0 0 0 0 0.25 0"/>
<feBlend mode="normal" in2="BackgroundImageFix" result="effect1_dropShadow_671_7594"/>
<feBlend mode="normal" in="SourceGraphic" in2="effect1_dropShadow_671_7594" result="shape"/>
</filter>
<filter id="filter1_d_671_7594" x="3" y="7" width="31" height="30.125" filterUnits="userSpaceOnUse" color-interpolation-filters="sRGB">
<feFlood flood-opacity="0" result="BackgroundImageFix"/>
<feColorMatrix in="SourceAlpha" type="matrix" values="0 0 0 0 0 0 0 0 0 0 0 0 0 0 0 0 0 0 127 0" result="hardAlpha"/>
<feOffset dy="4"/>
<feGaussianBlur stdDeviation="2"/>
<feComposite in2="hardAlpha" operator="out"/>
<feColorMatrix type="matrix" values="0 0 0 0 0 0 0 0 0 0 0 0 0 0 0 0 0 0 0.25 0"/>
<feBlend mode="normal" in2="BackgroundImageFix" result="effect1_dropShadow_671_7594"/>
<feBlend mode="normal" in="SourceGraphic" in2="effect1_dropShadow_671_7594" result="shape"/>
</filter>
<clipPath id="clip0_671_7594">
<rect x="2" y="2" width="33" height="33" rx="16.5" fill="white"/>
</clipPath>
</defs>
</svg>
