<svg width="41" height="41" viewBox="0 0 41 41" fill="none" xmlns="http://www.w3.org/2000/svg">
<g filter="url(#filter0_d_902_4081)">
<g clip-path="url(#clip0_902_4081)">
<rect x="2" y="2" width="33" height="33" rx="16.5" fill="#FF6B1E"/>
<g filter="url(#filter1_d_902_4081)">
<path d="M14.6665 11.7923C14.6665 10.7757 15.0704 9.80063 15.7893 9.08174C16.5082 8.36285 17.4832 7.95898 18.4998 7.95898C19.5165 7.95898 20.4915 8.36285 21.2104 9.08174C21.9293 9.80063 22.3332 10.7757 22.3332 11.7923V16.8284C23.5052 17.6445 24.3862 18.8133 24.8479 20.1648C25.3096 21.5162 25.328 22.9798 24.9003 24.3424C24.4727 25.705 23.6213 26.8956 22.4701 27.7409C21.3189 28.5861 19.928 29.0419 18.4998 29.0419C17.0717 29.0419 15.6808 28.5861 14.5296 27.7409C13.3784 26.8956 12.527 25.705 12.0993 24.3424C11.6717 22.9798 11.69 21.5162 12.1518 20.1648C12.6135 18.8133 13.4945 17.6445 14.6665 16.8284V11.7923ZM15.7628 18.4C14.9254 18.9828 14.2959 19.8176 13.9658 20.783C13.6358 21.7484 13.6225 22.7939 13.9279 23.7673C14.2332 24.7408 14.8414 25.5914 15.6637 26.1952C16.486 26.7991 17.4796 27.1247 18.4998 27.1247C19.5201 27.1247 20.5137 26.7991 21.336 26.1952C22.1583 25.5914 22.7664 24.7408 23.0718 23.7673C23.3772 22.7939 23.3639 21.7484 23.0339 20.783C22.7038 19.8176 22.0743 18.9828 21.2368 18.4L20.4165 17.8279V11.7923C20.4165 11.284 20.2146 10.7965 19.8551 10.437C19.4957 10.0776 19.0082 9.87565 18.4998 9.87565C17.9915 9.87565 17.504 10.0776 17.1445 10.437C16.7851 10.7965 16.5832 11.284 16.5832 11.7923V17.8279L15.7628 18.4ZM14.6665 22.334H22.3332C22.3332 23.3506 21.9293 24.3257 21.2104 25.0446C20.4915 25.7635 19.5165 26.1673 18.4998 26.1673C17.4832 26.1673 16.5082 25.7635 15.7893 25.0446C15.0704 24.3257 14.6665 23.3506 14.6665 22.334Z" fill="white"/>
</g>
</g>
</g>
<defs>
<filter id="filter0_d_902_4081" x="0" y="0" width="41" height="41" filterUnits="userSpaceOnUse" color-interpolation-filters="sRGB">
<feFlood flood-opacity="0" result="BackgroundImageFix"/>
<feColorMatrix in="SourceAlpha" type="matrix" values="0 0 0 0 0 0 0 0 0 0 0 0 0 0 0 0 0 0 127 0" result="hardAlpha"/>
<feOffset dx="2" dy="2"/>
<feGaussianBlur stdDeviation="2"/>
<feComposite in2="hardAlpha" operator="out"/>
<feColorMatrix type="matrix" values="0 0 0 0 0 0 0 0 0 0 0 0 0 0 0 0 0 0 0.25 0"/>
<feBlend mode="normal" in2="BackgroundImageFix" result="effect1_dropShadow_902_4081"/>
<feBlend mode="normal" in="SourceGraphic" in2="effect1_dropShadow_902_4081" result="shape"/>
</filter>
<filter id="filter1_d_902_4081" x="7.7915" y="7.95898" width="21.4165" height="29.082" filterUnits="userSpaceOnUse" color-interpolation-filters="sRGB">
<feFlood flood-opacity="0" result="BackgroundImageFix"/>
<feColorMatrix in="SourceAlpha" type="matrix" values="0 0 0 0 0 0 0 0 0 0 0 0 0 0 0 0 0 0 127 0" result="hardAlpha"/>
<feOffset dy="4"/>
<feGaussianBlur stdDeviation="2"/>
<feComposite in2="hardAlpha" operator="out"/>
<feColorMatrix type="matrix" values="0 0 0 0 0 0 0 0 0 0 0 0 0 0 0 0 0 0 0.25 0"/>
<feBlend mode="normal" in2="BackgroundImageFix" result="effect1_dropShadow_902_4081"/>
<feBlend mode="normal" in="SourceGraphic" in2="effect1_dropShadow_902_4081" result="shape"/>
</filter>
<clipPath id="clip0_902_4081">
<rect x="2" y="2" width="33" height="33" rx="16.5" fill="white"/>
</clipPath>
</defs>
</svg>
