<svg id="Group_23286" data-name="Group 23286" xmlns="http://www.w3.org/2000/svg" width="24.029" height="47.098" viewBox="0 0 24.029 47.098">
  <path id="Path_9764" data-name="Path 9764" d="M202.995,93.583l7.875,6.87a.9.9,0,0,1,.237,1.033l-7.183,16.845a.9.9,0,0,0,1.418,1.036L226.4,101.2a.9.9,0,0,0,.053-1.316l-8.65-8.762a.9.9,0,0,1-.2-.966l6.53-16.434a.9.9,0,0,0-1.472-.973L202.953,92.263a.9.9,0,0,0,.042,1.32Z" transform="translate(-202.686 -72.487)" fill="#f9a242"/>
  <path id="Path_9765" data-name="Path 9765" d="M230.46,99.883l-8.65-8.762a.9.9,0,0,1-.2-.966l6.53-16.434a.9.9,0,0,0-1.472-.973l-8.079,8-3.739,9.411a.9.9,0,0,0,.2.966l8.65,8.762a.9.9,0,0,1-.053,1.316l-13.311,11.482-2.409,5.65a.9.9,0,0,0,1.418,1.036L230.407,101.2a.9.9,0,0,0,.053-1.316Z" transform="translate(-206.691 -72.487)" fill="#f48a31"/>
</svg>
