<svg width="33" height="33" viewBox="0 0 33 33" fill="none" xmlns="http://www.w3.org/2000/svg">
<rect width="33" height="33" rx="16.5" fill="#FF6B1E" />
<path d="M19.375 25.125H13.625V14.5833H19.375V25.125ZM21.2917 25.125V14.5833H26.0833V24.1667C26.0833 24.4208 25.9824 24.6646 25.8026 24.8443C25.6229 25.024 25.3792 25.125 25.125 25.125H21.2917ZM11.7083 25.125H7.87499C7.62082 25.125 7.37707 25.024 7.19735 24.8443C7.01762 24.6646 6.91666 24.4208 6.91666 24.1667V14.5833H11.7083V25.125ZM26.0833 12.6667H6.91666V8.83333C6.91666 8.57917 7.01762 8.33541 7.19735 8.15569C7.37707 7.97597 7.62082 7.875 7.87499 7.875H25.125C25.3792 7.875 25.6229 7.97597 25.8026 8.15569C25.9824 8.33541 26.0833 8.57917 26.0833 8.83333V12.6667Z" fill="white" />
</svg>