<svg width="34" height="33" viewBox="0 0 34 33" fill="none" xmlns="http://www.w3.org/2000/svg">
<circle cx="16.5833" cy="16.5" r="16.5" fill="#809DED"/>
<path d="M26.871 15.4015L27.5102 15.0483L26.8036 13.7696L26.1645 14.1229C25.6744 14.3941 25.2401 14.7557 24.8848 15.1887L21.9609 13.5L24.8851 11.8113C25.2405 12.2443 25.6747 12.6059 26.1648 12.8771L26.8039 13.2304L27.5105 11.9517L26.8713 11.5985C26.6147 11.4567 26.3805 11.2777 26.1764 11.0672L27.9375 10.0485L27.207 8.78516L25.4473 9.80051C25.3665 9.51833 25.3283 9.2257 25.3337 8.93225L25.3473 8.20178L23.8864 8.17455L23.8728 8.90502C23.8625 9.46454 23.9581 10.021 24.1547 10.5449L21.2305 12.2346V8.85754C21.783 8.76615 22.3132 8.5709 22.793 8.28213L23.4186 7.90527L22.6645 6.65385L22.039 7.0307C21.7875 7.1819 21.5151 7.29502 21.2305 7.36639V5.53125H19.7695V7.36639C19.4849 7.29502 19.2125 7.1819 18.961 7.0307L18.3355 6.65385L17.5814 7.90527L18.207 8.28213C18.6868 8.5709 19.217 8.76615 19.7695 8.85754V12.2346L16.8453 10.5449C17.0425 10.0206 17.1386 9.46374 17.1286 8.90369L17.1149 8.17322L15.654 8.20045L15.6676 8.93092C15.6731 9.22437 15.6348 9.517 15.5541 9.79918L13.793 8.78516L13.0625 10.0502L14.8239 11.0675C14.6198 11.278 14.3856 11.4571 14.129 11.5988L13.4898 11.9517L14.1964 13.2304L14.8355 12.8771C15.3256 12.6059 15.7599 12.2443 16.1152 11.8113L19.0391 13.5L16.1149 15.1887C15.7595 14.7557 15.3253 14.3941 14.8352 14.1229L14.1964 13.7696L13.4898 15.0483L14.129 15.4015C14.3856 15.5433 14.6198 15.7223 14.8239 15.9328L13.0625 16.9531L13.793 18.2182L15.5544 17.2012C15.6351 17.4833 15.6734 17.776 15.6679 18.0694L15.6543 18.7999L17.1153 18.8271L17.1289 18.0966C17.1389 17.5365 17.0427 16.9795 16.8453 16.4551L19.7695 14.7654V18.1425C19.217 18.2339 18.6868 18.4291 18.207 18.7179L17.5814 19.0947L18.3355 20.3462L18.961 19.9693C19.2125 19.8181 19.4849 19.705 19.7695 19.6336V21.4688H21.2305V19.6336C21.5151 19.705 21.7875 19.8181 22.039 19.9693L22.6645 20.3462L23.4186 19.0947L22.793 18.7179C22.3132 18.4291 21.783 18.2339 21.2305 18.1425V14.7654L24.1547 16.4551C23.9575 16.9794 23.8614 17.5363 23.8714 18.0963L23.8851 18.8268L25.346 18.7996L25.3324 18.0691C25.3272 17.7751 25.366 17.482 25.4473 17.1995L27.207 18.2165L27.9375 16.9531L26.1777 15.9341C26.3812 15.7233 26.6149 15.5438 26.871 15.4015Z" fill="#CFD4D9"/>
<path d="M19.871 21.4015L20.5102 21.0483L19.8036 19.7696L19.1645 20.1229C18.6744 20.3941 18.2401 20.7557 17.8848 21.1887L14.9609 19.5L17.8851 17.8113C18.2405 18.2443 18.6747 18.6059 19.1648 18.8771L19.8039 19.2304L20.5105 17.9517L19.8713 17.5985C19.6147 17.4567 19.3805 17.2777 19.1764 17.0672L20.9375 16.0485L20.207 14.7852L18.4473 15.8005C18.3665 15.5183 18.3283 15.2257 18.3337 14.9322L18.3473 14.2018L16.8864 14.1746L16.8728 14.905C16.8625 15.4645 16.9581 16.021 17.1547 16.5449L14.2305 18.2346V14.8575C14.783 14.7661 15.3132 14.5709 15.793 14.2821L16.4186 13.9053L15.6645 12.6538L15.039 13.0307C14.7875 13.1819 14.5151 13.295 14.2305 13.3664V11.5312H12.7695V13.3664C12.4849 13.295 12.2125 13.1819 11.961 13.0307L11.3355 12.6538L10.5814 13.9053L11.207 14.2821C11.6868 14.5709 12.217 14.7661 12.7695 14.8575V18.2346L9.84533 16.5449C10.0425 16.0206 10.1386 15.4637 10.1286 14.9037L10.1149 14.1732L8.654 14.2004L8.66762 14.9309C8.67306 15.2244 8.63479 15.517 8.55406 15.7992L6.79297 14.7852L6.0625 16.0502L7.82393 17.0675C7.61983 17.278 7.38563 17.4571 7.12898 17.5988L6.48982 17.9517L7.19639 19.2304L7.83555 18.8771C8.32564 18.6059 8.75986 18.2443 9.1152 17.8113L12.0391 19.5L9.11486 21.1887C8.75953 20.7557 8.32531 20.3941 7.83521 20.1229L7.19639 19.7696L6.48982 21.0483L7.12898 21.4015C7.38563 21.5433 7.61983 21.7223 7.82393 21.9328L6.0625 22.9531L6.79297 24.2182L8.55439 23.2012C8.63512 23.4833 8.67339 23.776 8.66795 24.0694L8.65434 24.7999L10.1153 24.8271L10.1289 24.0966C10.1389 23.5365 10.0427 22.9795 9.84533 22.4551L12.7695 20.7654V24.1425C12.217 24.2339 11.6868 24.4291 11.207 24.7179L10.5814 25.0947L11.3355 26.3462L11.961 25.9693C12.2125 25.8181 12.4849 25.705 12.7695 25.6336V27.4688H14.2305V25.6336C14.5151 25.705 14.7875 25.8181 15.039 25.9693L15.6645 26.3462L16.4186 25.0947L15.793 24.7179C15.3132 24.4291 14.783 24.2339 14.2305 24.1425V20.7654L17.1547 22.4551C16.9575 22.9794 16.8614 23.5363 16.8714 24.0963L16.8851 24.8268L18.346 24.7996L18.3324 24.0691C18.3272 23.7751 18.366 23.482 18.4473 23.1995L20.207 24.2165L20.9375 22.9531L19.1777 21.9341C19.3812 21.7233 19.6149 21.5438 19.871 21.4015Z" fill="white"/>
</svg>
