<svg width="34" height="33" viewBox="0 0 34 33" fill="none" xmlns="http://www.w3.org/2000/svg">
<circle cx="17.2499" cy="16.5" r="16.5" fill="#C3D311"/>
<path d="M27.6666 16V8.6C27.6666 8.44087 27.6034 8.28826 27.4909 8.17574C27.3784 8.06321 27.2258 8 27.0666 8H8.26663C8.1075 8 7.95488 8.06321 7.84236 8.17574C7.72984 8.28826 7.66663 8.44087 7.66663 8.6V16M27.6666 16H7.66663M27.6666 16L26.8766 18.584C26.7516 18.9936 26.4983 19.3523 26.1541 19.6072C25.8099 19.8621 25.3929 19.9998 24.9646 20H23.6666M7.66663 16L8.45663 18.584C8.58169 18.9936 8.83497 19.3523 9.17917 19.6072C9.52337 19.8621 9.94031 19.9998 10.3686 20H11.6666M23.6666 12H24.6666M15.1666 19.5C15.1666 19.5 15.1666 26.5 11.6666 26.5M20.1666 19.5C20.1666 19.5 20.1666 26.5 23.6666 26.5M17.6666 19.5V26.5" stroke="white" stroke-width="1.5" stroke-linecap="round" stroke-linejoin="round"/>
</svg>