<svg width="34" height="33" viewBox="0 0 34 33" fill="none" xmlns="http://www.w3.org/2000/svg">
<circle cx="16.5833" cy="16.5" r="16.5" fill="#E1221C"/>
<path d="M17.0117 13.1547C16.3109 13.1547 15.6547 13.4265 15.1578 13.9234C14.6633 14.4203 14.3891 15.0765 14.3891 15.7773C14.3891 16.4781 14.6633 17.1344 15.1578 17.6312C15.6547 18.1258 16.3109 18.4 17.0117 18.4C17.7125 18.4 18.3688 18.1258 18.8656 17.6312C19.3602 17.1344 19.6344 16.4781 19.6344 15.7773C19.6344 15.0765 19.3602 14.4203 18.8656 13.9234C18.6229 13.6789 18.3341 13.485 18.0158 13.353C17.6976 13.221 17.3563 13.1536 17.0117 13.1547ZM26.675 18.6742L25.1422 17.364C25.2149 16.9187 25.2524 16.464 25.2524 16.0117C25.2524 15.5594 25.2149 15.1023 25.1422 14.6594L26.675 13.3492C26.7908 13.2501 26.8737 13.1181 26.9126 12.9707C26.9515 12.8233 26.9447 12.6676 26.893 12.5242L26.8719 12.4633C26.45 11.2836 25.818 10.1902 25.0063 9.23592L24.9641 9.18671C24.8655 9.07081 24.7341 8.9875 24.5873 8.94776C24.4404 8.90801 24.285 8.91369 24.1414 8.96405L22.2383 9.64139C21.5352 9.06483 20.7524 8.61014 19.9039 8.29374L19.5359 6.30389C19.5082 6.15399 19.4355 6.01609 19.3275 5.9085C19.2195 5.80091 19.0813 5.72873 18.9313 5.70155L18.868 5.68983C17.6492 5.46952 16.3649 5.46952 15.1461 5.68983L15.0828 5.70155C14.9328 5.72873 14.7946 5.80091 14.6866 5.9085C14.5786 6.01609 14.5059 6.15399 14.4781 6.30389L14.1078 8.30311C13.2674 8.62204 12.4845 9.07563 11.7899 9.64608L9.87267 8.96405C9.72915 8.91329 9.57358 8.9074 9.42664 8.94717C9.2797 8.98695 9.14834 9.07049 9.05001 9.18671L9.00782 9.23592C8.19757 10.1912 7.56565 11.2844 7.1422 12.4633L7.12111 12.5242C7.01564 12.8172 7.10236 13.1453 7.33907 13.3492L8.89064 14.6734C8.81798 15.114 8.78282 15.5641 8.78282 16.0094C8.78282 16.4594 8.81798 16.9094 8.89064 17.3453L7.34376 18.6695C7.22797 18.7686 7.1451 18.9007 7.10616 19.048C7.06723 19.1954 7.07407 19.3511 7.12579 19.4945L7.14689 19.5555C7.57111 20.7344 8.19689 21.8242 9.01251 22.7828L9.0547 22.832C9.15326 22.9479 9.28463 23.0312 9.43148 23.071C9.57834 23.1107 9.73379 23.105 9.87735 23.0547L11.7945 22.3726C12.493 22.9469 13.2711 23.4016 14.1125 23.7156L14.4828 25.7148C14.5106 25.8647 14.5833 26.0026 14.6913 26.1102C14.7993 26.2178 14.9375 26.29 15.0875 26.3172L15.1508 26.3289C16.3815 26.5504 17.6419 26.5504 18.8727 26.3289L18.9359 26.3172C19.086 26.29 19.2241 26.2178 19.3322 26.1102C19.4402 26.0026 19.5129 25.8647 19.5406 25.7148L19.9086 23.725C20.757 23.4062 21.5399 22.9539 22.243 22.3773L24.1461 23.0547C24.2896 23.1054 24.4452 23.1113 24.5921 23.0716C24.7391 23.0318 24.8704 22.9482 24.9688 22.832L25.0109 22.7828C25.8266 21.8195 26.4524 20.7344 26.8766 19.5555L26.8977 19.4945C26.9984 19.2039 26.9117 18.8781 26.675 18.6742ZM17.0117 19.8976C14.7359 19.8976 12.8914 18.0531 12.8914 15.7773C12.8914 13.5016 14.7359 11.657 17.0117 11.657C19.2875 11.657 21.132 13.5016 21.132 15.7773C21.132 18.0531 19.2875 19.8976 17.0117 19.8976Z" fill="white"/>
</svg>
