<svg width="15" height="14" viewBox="0 0 15 14" fill="none" xmlns="http://www.w3.org/2000/svg">
  <path d="M6.62499 4.81259C6.51415 4.81259 6.40332 4.77175 6.31582 4.68425L5.16665 3.53509L4.01749 4.68425C3.84832 4.85342 3.56832 4.85342 3.39915 4.68425C3.22999 4.51509 3.22999 4.23509 3.39915 4.06592L4.85749 2.60759C5.02665 2.43842 5.30665 2.43842 5.47582 2.60759L6.93415 4.06592C7.10332 4.23509 7.10332 4.51509 6.93415 4.68425C6.84665 4.77175 6.73582 4.81259 6.62499 4.81259Z" fill="#B1B1B1"/>
  <path d="M5.16669 11.5209C4.92752 11.5209 4.72919 11.3226 4.72919 11.0834V2.91675C4.72919 2.67758 4.92752 2.47925 5.16669 2.47925C5.40585 2.47925 5.60419 2.67758 5.60419 2.91675V11.0834C5.60419 11.3226 5.40585 11.5209 5.16669 11.5209ZM9.83335 11.5209C9.72252 11.5209 9.61169 11.4801 9.52419 11.3926L8.06585 9.93425C7.89669 9.76508 7.89669 9.48508 8.06585 9.31592C8.23502 9.14675 8.51502 9.14675 8.68419 9.31592L9.83335 10.4651L10.9825 9.31592C11.1517 9.14675 11.4317 9.14675 11.6009 9.31592C11.77 9.48508 11.77 9.76508 11.6009 9.93425L10.1425 11.3926C10.055 11.4801 9.94419 11.5209 9.83335 11.5209Z" fill="#B1B1B1"/>
  <path d="M9.83331 11.5209C9.59415 11.5209 9.39581 11.3226 9.39581 11.0834V2.91675C9.39581 2.67758 9.59415 2.47925 9.83331 2.47925C10.0725 2.47925 10.2708 2.67758 10.2708 2.91675V11.0834C10.2708 11.3226 10.0725 11.5209 9.83331 11.5209Z" fill="#B1B1B1"/>
</svg>