<svg width="34" height="33" viewBox="0 0 34 33" fill="none" xmlns="http://www.w3.org/2000/svg">
<circle cx="16.5833" cy="16.5" r="16.5" fill="#F89C22"/>
<path d="M8 16H9M17 7V8M25 16H26M10.6 9.6L11.3 10.3M23.4 9.6L22.7 10.3M14.7 21H19.3M14 20C13.1605 19.3704 12.5403 18.4925 12.2274 17.4908C11.9145 16.4892 11.9247 15.4144 12.2566 14.4189C12.5884 13.4233 13.2251 12.5574 14.0764 11.9438C14.9278 11.3302 15.9506 11 17 11C18.0494 11 19.0722 11.3302 19.9236 11.9438C20.7749 12.5574 21.4116 13.4233 21.7434 14.4189C22.0753 15.4144 22.0855 16.4892 21.7726 17.4908C21.4597 18.4925 20.8395 19.3704 20 20C19.6096 20.3865 19.3156 20.8594 19.1419 21.3806C18.9681 21.9018 18.9195 22.4566 19 23C19 23.5304 18.7893 24.0391 18.4142 24.4142C18.0391 24.7893 17.5304 25 17 25C16.4696 25 15.9609 24.7893 15.5858 24.4142C15.2107 24.0391 15 23.5304 15 23C15.0805 22.4566 15.0319 21.9018 14.8581 21.3806C14.6844 20.8594 14.3904 20.3865 14 20Z" stroke="white" stroke-width="2" stroke-linecap="round" stroke-linejoin="round"/>
</svg>
