<svg width="33" height="33" viewBox="0 0 33 33" fill="none" xmlns="http://www.w3.org/2000/svg">
<rect width="33" height="33" rx="16.5" fill="#F2C94C"/>
<path d="M16.005 18.0031C16.6033 18.003 17.188 18.1819 17.6838 18.5167C18.1797 18.8515 18.5641 19.3269 18.7878 19.8818C19.0114 20.4368 19.0639 21.0459 18.9387 21.631C18.8135 22.216 18.5162 22.7503 18.085 23.1651L16.175 25.0031H19.005V27.0031H13.005L13.004 25.2791L16.698 21.7241C16.8172 21.6095 16.9061 21.4672 16.9568 21.3098C17.0075 21.1524 17.0184 20.985 16.9885 20.8224C16.9586 20.6597 16.8889 20.5071 16.7856 20.378C16.6822 20.249 16.5485 20.1476 16.3964 20.0829C16.2442 20.0182 16.0784 19.9922 15.9138 20.0073C15.7491 20.0224 15.5908 20.078 15.453 20.1693C15.3151 20.2606 15.202 20.3846 15.1239 20.5303C15.0457 20.6759 15.0049 20.8387 15.005 21.0041H13.005C13.0049 20.61 13.0824 20.2198 13.2331 19.8557C13.3838 19.4916 13.6047 19.1608 13.8833 18.8821C14.1619 18.6034 14.4927 18.3823 14.8567 18.2315C15.2208 18.0807 15.611 18.0031 16.005 18.0031ZM22.005 18.0031V22.0031H24.005V18.0031H26.005V27.0031H24.005V24.0031H20.005V18.0031H22.005ZM8.00501 17.0031C8.00377 18.2026 8.27283 19.3871 8.7922 20.4684C9.31157 21.5497 10.0679 22.5002 11.005 23.2491V25.6651C9.48428 24.7875 8.22152 23.525 7.34378 22.0044C6.46604 20.4838 6.00429 18.7588 6.00501 17.0031H8.00501ZM16.005 7.00305C21.19 7.00305 25.454 10.9501 25.955 16.0031H23.943C23.7399 14.3905 23.0505 12.8781 21.9666 11.667C20.8827 10.4559 19.4557 9.60367 17.8755 9.22365C16.2953 8.84363 14.6368 8.95388 13.1208 9.53971C11.6047 10.1255 10.3031 11.1592 9.38901 12.5031H12.005V14.5031H6.00501V8.50305H8.00501V11.0031C8.93567 9.76023 10.1433 8.75157 11.5321 8.0572C12.9208 7.36283 14.4524 7.00189 16.005 7.00305Z" fill="white"/>
</svg>