<svg width="34" height="33" viewBox="0 0 34 33" fill="none" xmlns="http://www.w3.org/2000/svg">
<circle cx="16.9167" cy="16.5" r="16.5" fill="#88D3E6"/>
<path d="M26.3279 18.6845L27.2302 18.1858L26.2327 16.3806L25.3304 16.8794C24.6385 17.2622 24.0255 17.7728 23.5238 18.3841L19.396 16L23.5243 13.6159C24.0259 14.2272 24.6389 14.7378 25.3308 15.1206L26.2332 15.6194L27.2307 13.8142L26.3283 13.3155C25.966 13.1154 25.6354 12.8626 25.3472 12.5655L27.8335 11.1273L26.8022 9.34375L24.3179 10.7772C24.2039 10.3788 24.1499 9.96569 24.1576 9.55141L24.1768 8.52016L22.1143 8.48172L22.0951 9.51297C22.0805 10.3029 22.2155 11.0884 22.493 11.8281L18.3647 14.2136V9.44594C19.1448 9.31692 19.8933 9.04127 20.5707 8.63359L21.4538 8.10156L20.3893 6.33484L19.5062 6.86687C19.1512 7.08033 18.7665 7.24003 18.3647 7.34078V4.75H16.3022V7.34078C15.9005 7.24003 15.5158 7.08033 15.1608 6.86687L14.2777 6.33484L13.2132 8.10156L14.0963 8.63359C14.7737 9.04127 15.5222 9.31692 16.3022 9.44594V14.2136L12.174 11.8281C12.4523 11.0879 12.588 10.3018 12.5738 9.51109L12.5546 8.47984L10.4921 8.51828L10.5113 9.54953C10.519 9.96382 10.465 10.3769 10.351 10.7753L7.86475 9.34375L6.8335 11.1297L9.32021 12.5659C9.03208 12.8631 8.70145 13.1158 8.33912 13.3159L7.43678 13.8142L8.43428 15.6194L9.33662 15.1206C10.0285 14.7378 10.6415 14.2272 11.1432 13.6159L15.271 16L11.1427 18.3841C10.6411 17.7728 10.028 17.2622 9.33615 16.8794L8.43428 16.3806L7.43678 18.1858L8.33912 18.6845C8.70145 18.8846 9.03208 19.1374 9.32021 19.4345L6.8335 20.875L7.86475 22.6609L10.3515 21.2252C10.4654 21.6235 10.5195 22.0367 10.5118 22.4509L10.4926 23.4822L12.5551 23.5206L12.5743 22.4894C12.5884 21.6985 12.4525 20.9122 12.174 20.1719L16.3022 17.7864V22.5541C15.5222 22.6831 14.7737 22.9587 14.0963 23.3664L13.2132 23.8984L14.2777 25.6652L15.1608 25.1331C15.5158 24.9197 15.9005 24.76 16.3022 24.6592V27.25H18.3647V24.6592C18.7665 24.76 19.1512 24.9197 19.5062 25.1331L20.3893 25.6652L21.4538 23.8984L20.5707 23.3664C19.8933 22.9587 19.1448 22.6831 18.3647 22.5541V17.7864L22.493 20.1719C22.2147 20.9121 22.079 21.6982 22.0932 22.4889L22.1124 23.5202L24.1749 23.4817L24.1557 22.4505C24.1484 22.0355 24.2031 21.6217 24.3179 21.2228L26.8022 22.6586L27.8335 20.875L25.3491 19.4364C25.6364 19.1388 25.9663 18.8854 26.3279 18.6845Z" fill="white"/>
</svg>
