<svg width="33" height="33" viewBox="0 0 33 33" fill="none" xmlns="http://www.w3.org/2000/svg">
<circle cx="16.5" cy="16.5" r="16.5" fill="#F9BE00"/>
<path d="M15.11 27C14.994 26.9998 14.879 26.9795 14.77 26.94C14.5597 26.863 14.3814 26.7177 14.2635 26.5273C14.1457 26.3369 14.0951 26.1125 14.12 25.89L14.89 18.8H8.99998C8.81831 18.8002 8.64 18.751 8.4842 18.6576C8.32839 18.5642 8.20098 18.4301 8.11565 18.2697C8.03032 18.1093 7.99029 17.9287 7.99986 17.7473C8.00944 17.5659 8.06825 17.3905 8.16998 17.24L16.06 5.43998C16.1848 5.25531 16.3677 5.11763 16.5796 5.04878C16.7916 4.97994 17.0205 4.98388 17.23 5.05997C17.4314 5.13474 17.6033 5.27236 17.7204 5.45246C17.8375 5.63257 17.8934 5.84559 17.88 6.05998L17.11 13.2H23C23.1817 13.1997 23.36 13.2489 23.5158 13.3424C23.6716 13.4358 23.799 13.5699 23.8843 13.7303C23.9696 13.8906 24.0097 14.0712 24.0001 14.2527C23.9905 14.4341 23.9317 14.6095 23.83 14.76L15.94 26.56C15.8483 26.6957 15.7246 26.8068 15.5799 26.8835C15.4351 26.9602 15.2738 27.0002 15.11 27Z" fill="white"/>
</svg>
