<svg xmlns="http://www.w3.org/2000/svg" width="54" height="54" viewBox="0 0 54 54">
  <g id="Group_23402" data-name="Group 23402" transform="translate(-998 -429)">
    <circle id="Ellipse_2145" data-name="Ellipse 2145" cx="27" cy="27" r="27" transform="translate(998 429)" fill="#fff"/>
    <g id="Renewable_energy" transform="translate(960.078 393.365)">
      <path id="Path_11218" data-name="Path 11218" d="M196.792,140.693a.82.82,0,0,0-.767-1.113h-5.332a.822.822,0,0,0-.8.65l-2.3,10.842a.82.82,0,0,0,.8.991h3.481a.821.821,0,0,1,.806.976l-.862,4.469a.736.736,0,0,0,1.361.506l5.485-9.558a.821.821,0,0,0-.712-1.229H195.5a.821.821,0,0,1-.768-1.113Z" transform="translate(-128.05 -86.061)" fill="#054e08"/>
      <path id="Path_11219" data-name="Path 11219" d="M195.179,74.265A16.511,16.511,0,0,0,177.4,47.322l.512,1.316A15.1,15.1,0,0,1,194.166,73.28l-1-.978a.746.746,0,0,0-1.266.544l.038,2.657a.746.746,0,0,0,.754.735l2.657-.031a.746.746,0,0,0,.511-1.28Z" transform="translate(-118.677 0)" fill="#054e08"/>
      <path id="Path_11220" data-name="Path 11220" d="M59.071,108.257a15.089,15.089,0,0,1-4.7-24.385l.889.862a.746.746,0,0,0,1.266-.544l-.038-2.657a.744.744,0,0,0-.754-.735l-2.657.031a.746.746,0,0,0-.514,1.284l.794.774a16.507,16.507,0,0,0,17.78,26.942l-.511-1.315A15,15,0,0,1,59.071,108.257Z" transform="translate(0 -31.889)" fill="#054e08"/>
    </g>
  </g>
</svg>
