<svg width="4" height="11" viewBox="0 0 4 11" fill="none" xmlns="http://www.w3.org/2000/svg">
<path d="M3.35271 2.33334C3.24188 2.33334 3.13104 2.29251 3.04354 2.20501L1.89438 1.05584L0.745209 2.20501C0.576042 2.37417 0.296042 2.37417 0.126875 2.20501C-0.0422917 2.03584 -0.0422917 1.75584 0.126875 1.58667L1.58521 0.12834C1.75437 -0.0408268 2.03437 -0.0408268 2.20354 0.12834L3.66187 1.58667C3.83104 1.75584 3.83104 2.03584 3.66187 2.20501C3.57437 2.29251 3.46354 2.33334 3.35271 2.33334Z" fill="#B1B1B1"/>
<path d="M1.90002 10.0417C1.62669 10.0417 1.40002 9.84333 1.40002 9.60417V1.4375C1.40002 1.19833 1.62669 1 1.90002 1C2.17336 1 2.40002 1.19833 2.40002 1.4375V9.60417C2.40002 9.84333 2.17336 10.0417 1.90002 10.0417Z" fill="#B1B1B1"/>
</svg>
