<svg width="5" height="11" viewBox="0 0 5 11" fill="none" xmlns="http://www.w3.org/2000/svg">
<path d="M1.4117 7.70987C1.52253 7.70987 1.63336 7.75071 1.72086 7.83821L2.87003 8.98737L4.0192 7.83821C4.18836 7.66904 4.46836 7.66904 4.63753 7.83821C4.8067 8.00737 4.8067 8.28737 4.63753 8.45654L3.1792 9.91487C3.01003 10.084 2.73003 10.084 2.56086 9.91487L1.10253 8.45654C0.933363 8.28737 0.933363 8.00737 1.10253 7.83821C1.19003 7.75071 1.30086 7.70987 1.4117 7.70987Z" fill="#B1B1B1"/>
<path d="M2.89191 0.00154591C3.16524 0.00154591 3.39191 0.199879 3.39191 0.439046L3.39191 8.60571C3.39191 8.84488 3.16524 9.04321 2.89191 9.04321C2.61857 9.04321 2.39191 8.84488 2.39191 8.60571L2.39191 0.439046C2.39191 0.199879 2.61857 0.00154591 2.89191 0.00154591Z" fill="#B1B1B1"/>
</svg>
